<svg width="11" height="10" viewBox="0 0 11 10" fill="none" xmlns="http://www.w3.org/2000/svg">
<path d="M3.07443 9.64283L0.196707 7.08701C0.134462 7.032 0.0849825 6.9662 0.0511954 6.89349C0.0174083 6.82079 0 6.74266 0 6.66374C0 6.58481 0.0174083 6.50668 0.0511954 6.43398C0.0849825 6.36128 0.134462 6.29547 0.196707 6.24046L1.15101 5.39391C1.27898 5.28116 1.45018 5.21812 1.62838 5.21812C1.80657 5.21812 1.97777 5.28116 2.10574 5.39391L3.81883 6.91655L8.62337 0.274963C8.7225 0.140944 8.87506 0.0472262 9.0488 0.0136201C9.22254 -0.0199859 9.40385 0.00915321 9.55439 0.0948784L10.6902 0.743645C10.7644 0.785124 10.8287 0.839727 10.8793 0.904217C10.9298 0.968706 10.9656 1.04177 10.9845 1.11907C11.0034 1.19637 11.005 1.27634 10.9893 1.35423C10.9736 1.43211 10.9408 1.50634 10.893 1.5725L5.20395 9.43927C5.08995 9.59326 4.94021 9.72264 4.76528 9.81832C4.59035 9.91399 4.39447 9.97363 4.19145 9.99304C3.98843 10.0124 3.78319 9.99115 3.5902 9.93064C3.39721 9.87013 3.22115 9.77189 3.07443 9.64283Z" fill="#191919"/>
</svg>
